<svg width="48" height="48" viewBox="0 0 48 48" fill="none" xmlns="http://www.w3.org/2000/svg">
<path d="M8 20V32M40 20V32M14 18H34M14 18V34C14 34.5304 14.2107 35.0391 14.5858 35.4142C14.9609 35.7893 15.4696 36 16 36H32C32.5304 36 33.0391 35.7893 33.4142 35.4142C33.7893 35.0391 34 34.5304 34 34V18M14 18C14 15.3478 15.0536 12.8043 16.9289 10.9289C18.8043 9.05357 21.3478 8 24 8C26.6522 8 29.1957 9.05357 31.0711 10.9289C32.9464 12.8043 34 15.3478 34 18M16 6L18 10M32 6L30 10M18 36V42M30 36V42" stroke="black" stroke-width="2" stroke-linecap="round" stroke-linejoin="round"/>
</svg>
