<svg width="48" height="48" viewBox="0 0 48 48" fill="none" xmlns="http://www.w3.org/2000/svg">
<path d="M18 7H14C12.9391 7 11.9217 7.42143 11.1716 8.17157C10.4214 8.92172 10 9.93913 10 11V35C10 36.0609 10.4214 37.0783 11.1716 37.8284C11.9217 38.5786 12.9391 39 14 39H34C35.0609 39 36.0783 38.5786 36.8284 37.8284C37.5786 37.0783 38 36.0609 38 35V11C38 9.93913 37.5786 8.92172 36.8284 8.17157C36.0783 7.42143 35.0609 7 34 7H30" stroke="white" stroke-width="2" stroke-linecap="round" stroke-linejoin="round"/>
<path d="M18 34V26M24 34V32M30 34V30M18 10C18 8.93913 18.4214 7.92172 19.1716 7.17157C19.9217 6.42143 20.9391 6 22 6H26C27.0609 6 28.0783 6.42143 28.8284 7.17157C29.5786 7.92172 30 8.93913 30 10C30 11.0609 29.5786 12.0783 28.8284 12.8284C28.0783 13.5786 27.0609 14 26 14H22C20.9391 14 19.9217 13.5786 19.1716 12.8284C18.4214 12.0783 18 11.0609 18 10Z" stroke="white" stroke-width="2" stroke-linecap="round" stroke-linejoin="round"/>
</svg>
