<svg width="64" height="64" viewBox="0 0 64 64" fill="none" xmlns="http://www.w3.org/2000/svg">
<path d="M24 13.3333H18.6667C17.2522 13.3333 15.8956 13.8952 14.8954 14.8954C13.8952 15.8956 13.3333 17.2522 13.3333 18.6667V50.6667C13.3333 52.0812 13.8952 53.4377 14.8954 54.4379C15.8956 55.4381 17.2522 56 18.6667 56H45.3333C46.7478 56 48.1044 55.4381 49.1046 54.4379C50.1048 53.4377 50.6667 52.0812 50.6667 50.6667V18.6667C50.6667 17.2522 50.1048 15.8956 49.1046 14.8954C48.1044 13.8952 46.7478 13.3333 45.3333 13.3333H40" stroke="white" stroke-width="2" stroke-linecap="round" stroke-linejoin="round"/>
<path d="M24 45.3333V34.6667M32 45.3333V42.6667M40 45.3333V40M24 13.3333C24 11.9188 24.5619 10.5623 25.5621 9.5621C26.5623 8.5619 27.9188 8 29.3333 8H34.6667C36.0812 8 37.4377 8.5619 38.4379 9.5621C39.4381 10.5623 40 11.9188 40 13.3333C40 14.7478 39.4381 16.1044 38.4379 17.1046C37.4377 18.1048 36.0812 18.6667 34.6667 18.6667H29.3333C27.9188 18.6667 26.5623 18.1048 25.5621 17.1046C24.5619 16.1044 24 14.7478 24 13.3333Z" stroke="white" stroke-width="2" stroke-linecap="round" stroke-linejoin="round"/>
</svg>
