<svg width="48" height="48" viewBox="0 0 48 48" fill="none" xmlns="http://www.w3.org/2000/svg">
<path d="M8 12C8 10.9391 8.42143 9.92172 9.17157 9.17157C9.92172 8.42143 10.9391 8 12 8H36C37.0609 8 38.0783 8.42143 38.8284 9.17157C39.5786 9.92172 40 10.9391 40 12V36C40 37.0609 39.5786 38.0783 38.8284 38.8284C38.0783 39.5786 37.0609 40 36 40H12C10.9391 40 9.92172 39.5786 9.17157 38.8284C8.42143 38.0783 8 37.0609 8 36V12Z" stroke="black" stroke-width="2" stroke-linecap="round" stroke-linejoin="round"/>
<path d="M8 18H20L22 14L26 22L28 18H40M8 28H40M28 34V34.02M34 34V34.02" stroke="black" stroke-width="2" stroke-linecap="round" stroke-linejoin="round"/>
</svg>
