<svg width="32" height="32" viewBox="0 0 32 32" fill="none" xmlns="http://www.w3.org/2000/svg">
<path d="M4 9.33332C4 8.62608 4.28095 7.9478 4.78105 7.4477C5.28115 6.94761 5.95942 6.66666 6.66667 6.66666H25.3333C26.0406 6.66666 26.7189 6.94761 27.219 7.4477C27.719 7.9478 28 8.62608 28 9.33332V22.6667C28 23.3739 27.719 24.0522 27.219 24.5523C26.7189 25.0524 26.0406 25.3333 25.3333 25.3333H6.66667C5.95942 25.3333 5.28115 25.0524 4.78105 24.5523C4.28095 24.0522 4 23.3739 4 22.6667V9.33332Z" stroke="white" stroke-width="2" stroke-linecap="round" stroke-linejoin="round"/>
<path d="M4 9.33331L16 17.3333L28 9.33331" stroke="white" stroke-width="2" stroke-linecap="round" stroke-linejoin="round"/>
</svg>
