<svg width="48" height="48" viewBox="0 0 48 48" fill="none" xmlns="http://www.w3.org/2000/svg">
<path d="M23 42H16C14.9391 42 13.9217 41.5786 13.1716 40.8284C12.4214 40.0783 12 39.0609 12 38V10C12 8.93913 12.4214 7.92172 13.1716 7.17157C13.9217 6.42143 14.9391 6 16 6H32C33.0609 6 34.0783 6.42143 34.8284 7.17157C35.5786 7.92172 36 8.93913 36 10V22M22 8H26" stroke="white" stroke-width="2" stroke-linecap="round" stroke-linejoin="round"/>
<path d="M36 44L42.7 37.432C43.1109 37.0333 43.4377 36.5563 43.6612 36.0292C43.8847 35.5022 44.0003 34.9356 44.0012 34.3631C44.0022 33.7906 43.8884 33.2237 43.6666 32.6959C43.4448 32.1681 43.1196 31.69 42.71 31.29C41.8748 30.4717 40.7527 30.0125 39.5834 30.0102C38.4142 30.008 37.2904 30.463 36.452 31.278L36.004 31.718L35.558 31.278C34.7228 30.4603 33.6012 30.0014 32.4324 29.9992C31.2637 29.9969 30.1403 30.4516 29.302 31.266C28.891 31.6646 28.564 32.1414 28.3404 32.6685C28.1167 33.1955 28.0009 33.762 27.9998 34.3345C27.9986 34.907 28.1122 35.4739 28.3338 36.0018C28.5554 36.5297 28.8806 37.0078 29.29 37.408L36 44Z" stroke="white" stroke-width="2" stroke-linecap="round" stroke-linejoin="round"/>
</svg>
