<svg width="64" height="64" viewBox="0 0 64 64" fill="none" xmlns="http://www.w3.org/2000/svg">
<path d="M30.6667 56H21.3333C19.9188 56 18.5623 55.4381 17.5621 54.4379C16.5619 53.4377 16 52.0812 16 50.6667V13.3333C16 11.9188 16.5619 10.5623 17.5621 9.5621C18.5623 8.5619 19.9188 8 21.3333 8H42.6667C44.0812 8 45.4377 8.5619 46.4379 9.5621C47.4381 10.5623 48 11.9188 48 13.3333V29.3333M29.3333 10.6667H34.6667" stroke="white" stroke-width="2" stroke-linecap="round" stroke-linejoin="round"/>
<path d="M48 58.6667L56.9333 49.9093C57.4812 49.3777 57.9169 48.7418 58.2149 48.039C58.5129 47.3362 58.6671 46.5808 58.6683 45.8175C58.6696 45.0541 58.5179 44.2983 58.2222 43.5945C57.9265 42.8908 57.4928 42.2534 56.9467 41.72C55.833 40.629 54.3369 40.0166 52.7779 40.0136C51.2189 40.0106 49.7205 40.6173 48.6027 41.704L48.0053 42.2907L47.4107 41.704C46.2971 40.6138 44.8016 40.0019 43.2433 39.9989C41.6849 39.9959 40.187 40.6021 39.0693 41.688C38.5213 42.2194 38.0854 42.8553 37.7872 43.5579C37.4889 44.2606 37.3345 45.0159 37.333 45.7793C37.3315 46.5427 37.483 47.2986 37.7785 48.0024C38.0739 48.7063 38.5074 49.3438 39.0533 49.8773L48 58.6667Z" stroke="white" stroke-width="2" stroke-linecap="round" stroke-linejoin="round"/>
</svg>
