<svg width="64" height="64" viewBox="0 0 64 64" fill="none" xmlns="http://www.w3.org/2000/svg">
<path d="M16.816 23.2293C9.87731 25.1573 5.33331 28.3653 5.33331 32C5.33331 37.8933 17.272 42.6667 32 42.6667C34.0613 42.6667 36.0693 42.5733 37.9946 42.3947M47.1786 40.7707C54.12 38.8453 58.6666 35.6347 58.6666 32C58.6666 26.1067 46.728 21.3333 32 21.3333C29.9386 21.3333 27.9306 21.4267 26 21.6053" stroke="white" stroke-width="2" stroke-linecap="round" stroke-linejoin="round"/>
<path d="M16.8133 40.7654C15.0107 47.7387 15.52 53.2801 18.6667 55.0934C23.768 58.0401 33.8747 50.0881 41.2373 37.3334C42.2702 35.5432 43.1911 33.7654 44 32.0001M47.184 23.2427C48.9893 16.2667 48.4827 10.7201 45.3333 8.90673C40.232 5.96006 30.1253 13.9121 22.7627 26.6667C21.7307 28.4534 20.808 30.2401 19.9973 32.0001" stroke="white" stroke-width="2" stroke-linecap="round" stroke-linejoin="round"/>
<path d="M32 14.464C26.8667 9.41866 21.8133 7.08799 18.6667 8.90666C13.5653 11.8507 15.3973 24.5787 22.7627 37.3333C23.792 39.12 24.8773 40.8107 25.9947 42.3893M32 49.5307C37.136 54.5787 42.1893 56.912 45.3333 55.0933C50.4347 52.1493 48.6027 39.4213 41.2373 26.6667C40.2364 24.9316 39.1591 23.2453 38.0053 21.608M30.6667 34.3093C30.9701 34.4872 31.3056 34.6033 31.6541 34.6509C32.0025 34.6986 32.3569 34.6768 32.6969 34.5869C33.0369 34.497 33.3558 34.3408 33.6351 34.1272C33.9145 33.9135 34.1489 33.6468 34.3247 33.3422C34.5005 33.0376 34.6144 32.7013 34.6597 32.3526C34.7051 32.0038 34.681 31.6495 34.5888 31.3101C34.4967 30.9708 34.3383 30.6529 34.1228 30.375C33.9074 30.0971 33.6391 29.8645 33.3333 29.6907C32.7212 29.3426 31.9962 29.2508 31.3166 29.4353C30.637 29.6198 30.058 30.0656 29.7059 30.6755C29.3538 31.2853 29.2572 32.0097 29.4372 32.6904C29.6172 33.3712 30.0592 33.9532 30.6667 34.3093Z" stroke="white" stroke-width="2" stroke-linecap="round" stroke-linejoin="round"/>
</svg>
